<svg xmlns="http://www.w3.org/2000/svg" viewBox="512 425 1024 1200">
  <path d="m1017 469-19 11-41 24-19 11-97 58-15 9-80 47-53 31-12 7-52 31-11 6-10 6-18 10-12 8-17 10-9 6v280c0 254 0 279 2 282q2 6 21 15l7 4 4 3 7 4 5 3 4 2 18 11 21 12 58 35 60 35 22 13 49 29 23 14 13 7 49 30 8 4 37 23 8 4 7 4 6 4 6 4 6 3 5 3 24 13c5 2 8 1 17-4l11-6 12-7q6-5 10-6l19-12 4-2a1433 1433 0 0 0 98-58l3-2 7-4 32-20 11-6 20-11 28-17 30-18 7-4 5-3 28-17a374 374 0 0 0 47-28l7-4 34-19 24-15c17-9 22-12 23-16l1-560q1-2-11-10l-23-14-21-13-28-15-60-36-75-44-18-10-26-16-72-42-58-35-80-46q-2-3-11 4m23 34 59 34 33 20 35 20 52 31a3272 3272 0 0 0 146 87l40 23 57 34 12 6v535l-7 3-7 5-1 1-9 5-12 7-10 6-13 8-20 11-15 9-17 10-53 32-52 30-34 21-22 13-9 5-110 65-33 19-22 14q-1 1-34-19l-87-52-73-43-26-15-9-6-17-10-54-31-99-59-11-6-33-20-5-4-1-266V759l3-2 41-25 89-52 16-9 62-37 67-39 18-11 86-51 64-38q3 0 15 8"/>
  <path d="m1023 533-2 1-16 10-20 11-17 10-38 23-20 11-21 13-54 32-25 15-23 13-8 5-117 70-50 32-1 247c0 224 0 245 2 248 1 2 21 16 23 16l6 4 5 3 8 4 9 6 11 6 61 36 30 18 28 16a451 451 0 0 0 57 34l47 28 18 10 22 14 85 51c3 1 3 1 11-3l16-9 26-17 26-14 51-30 9-6 9-6 6-3 12-8 105-62 19-11 8-4a617 617 0 0 1 69-41l10-6 41-27 1-322V777l-7-4-8-5-17-10-98-59-81-47-30-18-98-59-23-13-24-15q-22-13-30-15zm16 36 30 18 63 37 26 16 38 22 35 21 39 23 41 24 26 15 59 35 19 12 1 232-1 235-6 5-8 5-23 13-14 8-13 7-3 3-3 2-9 5-48 29-6 3-23 14-8 4-15 10-41 23-45 27-19 11-18 11-21 12-66 38-11-5-9-6-28-17-49-29-11-7-9-5-11-7-45-26-22-13-53-31-16-10-38-23-38-22-22-13-21-12-5-3V792l9-6 26-15 21-13 55-32 23-13 10-6 83-50 112-66 15-9 6-3 27-17z"/>
  <path d="m751 763-23 35-10 15c-5 7 0 17 9 16 2 0 9-7 12-13l4-7c2-2 2 5 2 223a2128 2128 0 0 0 5 231h249l268 1h20l-5 3q-13 8-17 14-4 7 3 12c5 3 8 2 28-13l17-11c13-9 15-11 15-16q1-5-12-14l-38-25q-6-3-11 2-4 2-3 7c1 4 1 5 8 10l11 8 5 2-261 1H765V807l4 5 5 8c5 10 14 12 19 5 3-4 2-7-4-17l-29-44q-4-3-9-1m520 34-5 9c-7 13-8 16-18 31a491 491 0 0 1-83 108l-2 5-1 5 6-3c6-3 22-18 38-36 24-30 45-60 65-99 10-17 10-18 7-20q-4-3-7 0"/>
  <path d="M999 820q-32 5-53 21c-8 6-21 20-25 27q-14 23-16 50c-1 11-1 11 15 12l35 2h19l1-9 3-13q6-20 25-29c6-3 7-3 18-4 17 0 25 2 35 11 11 8 17 28 14 44-3 14-10 25-29 40l-23 21a76 76 0 0 0-24 38l-3 11-1 20v21h65v-5l2-12q1-17 5-26a106 106 0 0 1 32-32q31-25 42-48c6-13 7-22 7-41 0-17 0-19-2-27-4-12-11-26-17-34q-25-31-73-38c-11-2-41-2-52 0m273 66-11 14a360 360 0 0 1-139 120l-12 5c-7 2-8 3-17 12l-8 10 38-8c16-6 43-20 56-30l14-10q36-27 83-91c10-14 10-18 4-22z"/>
  <path d="M927 972a193 193 0 0 0-117 62c-15 15-17 19-17 22q0 2 4 2c3 1 4 0 13-9a226 226 0 0 1 44-39l10-6a157 157 0 0 1 123-17c4 1 4 1 8-3l4-4-38-8zm342 8-4 6-11 13c-10 10-39 34-49 40l-9 6a236 236 0 0 1-53 27l-16 5-16 4c-7 1-19 2-26 0h-7l-1 6q-1 6 3 5c5 1 22 0 30-1a232 232 0 0 0 75-27 380 380 0 0 0 85-67c11-11 12-14 7-17zm-338 36c-23 3-54 17-76 35l-36 36q-30 38-30 46 3 7 11 5c3 0 4-2 13-14 28-43 64-73 99-85 12-5 22-6 38-6h17q3 2 4-1l3-15c-2-2-30-2-43-1m2 53q-15 3-34 13c-33 18-68 57-95 107l-8 13q-8 14 3 13c2-1 3-2 8-12q24-46 55-80a203 203 0 0 1 43-33q24-13 50-13h12v-10h-13zm79 45q-11 2-19 12-14 15-9 36c2 9 3 11 9 18 12 13 34 17 50 9 5-3 14-10 17-16 7-12 7-31-1-42q-6-10-19-15-13-6-28-2"/>
</svg>
