<svg xmlns="http://www.w3.org/2000/svg" width="2730.7" height="2730.7" viewBox="512 425 1024 1200">
  <path d="m991 484-97 58-176 104-155 91-11 7v37a277 277 0 0 0 82 220c33 34 64 55 108 74l14 6a488 488 0 0 0 131 33q3 0-3-5l-10-15-5-9-13-2c-31-6-69-17-94-28-47-21-80-43-110-74a245 245 0 0 1-71-149c-2-9-2-69-1-72l16-12 19-11 89-53 30-17 154-91 84-49 54-32 5 2 130 77c11 7 13 7 20 5l18-2c20-2 19-1 1-12l-29-16-21-13-13-8-15-9-37-21-51-30-8-5z"/>
  <path d="m1008 542-48 28c-104 61-101 59-104 64-5 9 2 20 14 19l11-5 28-17c11-6 27-15 35-21l36-21 22-13 24-14 55 36c-4 2-34 33-42 42l-14 17a625 625 0 0 0-116 229q6-9 27-25c10-7 9-6 15-22 35-89 94-176 151-223l30-20q3-2-1-4l-62-37-24-13-11-7-8-4z"/>
  <path d="M1200 606c-46 8-80 28-113 68a513 513 0 0 0-69 134l-6 18-2 7 14 1h15v-3a461 461 0 0 1 66-137c9-11 28-29 36-36a150 150 0 0 1 102-25c23 4 34 9 95 45l65 38 13 8 56 33 2 1v534l-21 13-216 127-135 81-39 23-30 18-7 3-5-3-11-7-57-33-111-66-15-9-87-52-21-12-135-80-5-3V983l-6-8q-12-17-19-32l-2-4v366l3 3 11 8 32 19 93 55 31 18 26 15 22 13 12 8 221 131c16 10 18 10 23 10 5 1 7 0 19-7l44-26 58-35 29-17 28-16 19-12 19-11 33-20 144-85 25-14 53-33 3-3V744l-8-6-72-43-35-20-32-19-21-12c-39-24-51-30-77-36-9-2-14-2-29-2z"/>
  <path d="M765 710q-55 4-88 51-11 18-16 37c-6 25-1 56 11 78q3 5 2 7l1 1q1-1 3 2c12 18 36 37 56 44 22 8 52 8 73 1a121 121 0 0 0 72-75c7-24 6-52-2-73q-18-45-58-63-26-12-55-10m26 15 15 3c7 3 20 11 26 16l4 3-10 11-10 9 1-2q2-1-1-2l-3-1-1-1-2-2q0-5-15-11c-7-2-9-2-23-3-16 1-22 2-33 7a81 81 0 0 0-44 59q-3 25 9 49c6 13 21 26 37 34 17 9 45 9 64-1q15-8 25-20c11-12 18-31 18-43q1-8-2-8-9-5-10 6 0 10-7 24-13 27-41 34a66 66 0 0 1-71-29l-6-13q-9-27 4-54c5-9 18-21 28-26q23-11 46-4l7 3v1h2l1 2 1 2h1v2l-1 2-1-1v-1l-1 1 1 2 1 1-2-1h-2l-2 1 1 1q4 3 1 2l-2 1-2 1q-2 2 1 2 1 1 0 0l2-1v1q-1 2-4 1h-3l3 1q3 3 0 1l-3 1h1l2 1 2 1q1-1 0 0l-2 1q-2 0-1 4v1l-2 1-1 1-1 1q1 2-6 9c-8 9-9 10-9 13q2 5 8 4c2-1 17-15 34-33 37-37 32-34 41-21s12 20 15 34q7 43-17 80-9 13-25 24a91 91 0 0 1-59 17c-17-1-27-3-42-11-11-6-14-8-24-17a90 90 0 0 1-25-41q-5-18-5-35 3-50 44-79 35-24 75-15m22 39q0 2-2 1v-1q1-2 2 0m-10 11-2-1 1-1zm-7 12-1-1v-1z"/>
  <path d="M796 770v1l1-1v-1zm-9 22v2zq0-4-1 0m-4 2q-2 3 1 1l1-1zm-1 4 2 1h1l-1-1zm437-83q-5 3-7 7l-3 4 1 89c0 89 0 89 2 93q2 5 6 7l4 3 67 1 71-1q6-1 11-9c2-5 2-5 2-74v-69l-27-27-27-27h-96zm85 10h6v20c0 19 0 20 2 23 4 6 6 7 28 7l20 2a1961 1961 0 0 1-1 128l-67 1c-57 0-64 0-67-2l-2-1v-88c0-81 0-87 2-88l4-2zm34 37h-14l-1-14v-14l14 14 13 13z"/>
  <path d="M1245 800q-4 6 0 8c2 2 9 2 47 2l44-1 2-2v-6l-2-3h-45c-42 0-45 0-46 2m0 29q-4 4 0 9l1 2h89l2-2q3-2 1-6l-2-4a484 484 0 0 0-91 1m-1 31q-3 4 0 7l2 3h44c42 0 45 0 47-2q4-4-1-9c-2-2-5-2-46-2h-44zm-235 11c-25 5-47 23-56 47-4 11-4 15-5 33v18l-5 1q-9 2-16 9c-5 7-5 9-5 71 1 57 1 57 3 62q5 9 13 11l87 1 83 1 5-3q7-3 12-13c1-5 2-117 0-123-3-8-13-16-21-16h-4v-15c0-29-6-47-22-63a79 79 0 0 0-40-21zm29 27q9 2 18 10 17 15 16 46l-1 16h-94l-1-15c0-17 1-23 5-32q18-32 57-25m34 113c3 1 5 7 5 10l-1 2-17 19-29 29q-15 17-19 12l-31-29q-5-7 1-14l7-3c4 0 5 1 15 11l11 10 17-17c33-35 30-32 35-32zm94-84c6 10 9 15 12 25l4 10 18 13a439 439 0 0 1 165 187q3 4 8 3 5 0 9-4t3-9c0-5-1-8-8-22a462 462 0 0 0-161-177l-17-11-24-14-13-7z"/>
  <path d="M1424 934q-4 2-6 5c-2 2-2 4-3 162v159l-13 8-75 44-4 2v-3l4-19 5-37a328 328 0 0 0-1-58c-2-25-8-49-12-54q-7-5-16-1-10 4-4 25a281 281 0 0 1-33 211 744 744 0 0 1 83-48l37-21 36-22 16-11 4-4v-166l-1-166-2-2q-5-6-10-6zm-233 92-2 19c-2 6-2 6 7 19a275 275 0 0 1 46 214q-14 68-63 115c-15 15-20 18-75 51l-49 29c-22 14-27 16-29 16l-27-15-39-23-14-9-72-43-92-54-31-19-38-22-39-24-27-15-9-5v-178l7 4a457 457 0 0 0 151 71h10q6-4 7-11 0-10-7-14l-6-2a414 414 0 0 1-173-92l-8-7-7-7c-1-1-2 11-1 124v124l4 4 11 8 52 30 28 17 34 20 18 10 42 26 37 21 39 23 35 22 44 25 66 40 4 3 7-3 17-10 64-38 41-24c11-6 38-27 51-41q26-27 44-62a288 288 0 0 0 0-238c-14-32-26-52-50-81l-8-10z"/>
  <path d="M1164 1156c-3 1-11 14-13 19q-3 7-4 18c-1 7-1 9 3 29 4 22 5 31 4 38q-2 14-8 22l-4 7q1 5 4 6 10-1 17-22c4-13 4-23 0-41q-10-44 2-61l5-6q3-3-1-8-2-3-5-1m-478 10-5 5q-2 2-2 8 0 8 4 9c9 7 50 20 87 27 28 6 36 6 73 6 30 1 35 0 48-2 43-6 88-20 123-36l8-4-12-1-38-6-15 4q-44 14-82 17h-71q-47-5-101-24c-12-4-12-5-17-3"/>
  <path d="M1169 1175q-4 4 7 13l15 13c7 7 7 7 10 6q3 0 3-4 1-1-7-9l-15-13q-10-10-13-6m-6 21q-3 4 8 13 7 7 13 4 5-2 0-5-4-1-9-7-10-8-12-5"/>
  <path d="M1212 1206q-15 14-42 15-3 0-2 5v5h8q16 0 29-7c10-5 11-6 16-12q5-6 1-9-3-4-10 3m-180 2q-4 1-5 7l-7 33-1 8-19 110-12-47-12-43q-1-8-9-8c-5 0-7 4-15 33l-10 32-2 7-4-7q-3-7-6-9l-3-3h-51l-4 3q-7 5-1 11c2 2 2 2 26 2h24l8 13 9 12 4 1q5 1 6-2a260 260 0 0 0 20-56l4 18 13 52c9 38 10 39 16 39 7 0 8-2 11-19l5-33 19-100 2 11 9 46c14 68 14 68 21 68 6 0 7-2 19-36l11-35c1-2 2-2 6 8 7 16 3 14 39 14h31l4-3q7-6-3-12c-2-1-4-2-29-2h-26l-8-16-10-17q-4-4-9-1c-3 3-3 3-16 40l-7 20-9-44-9-39-8-39-2-9-4-8-3-1z"/>
  <path d="M1121 1221c-13 3-32 17-32 25q0 9 14-3c10-8 16-11 31-12l10-1-1-3-2-6z"/>
  <path d="M1129 1236q-5 1 2 7l14 12 4-3 3-3-9-7c-8-7-10-8-14-6m-18 7c-3 5-1 6 14 20l17 13 3-2q2-3-2-6c-4-5-29-27-30-27z"/>
</svg>
