<svg xmlns="http://www.w3.org/2000/svg" viewBox="512 425 1024 1200">
  <path d="m1012 472-42 25-7 4-3 2-13 7-59 35-38 23-20 11-89 53-22 13-101 59-16 10q-41 23-48 29l-2 2v279l1 282q2 5 17 12l17 10 4 3 7 4 27 16 17 10 27 16 86 51 21 12 26 15 19 11 9 6 12 7 7 4 52 31 9 5 1 1 48 29 11 7 1 1 23 12q26 18 32 17c5 0 22-9 41-21q6-5 9-5l2-2 3-2 9-5 8-5 57-34c9-4 11-6 15-9l2-1 3-1 22-13 127-76 75-44 10-7 6-3 20-12 54-31q8-4 10-9l1-558v-5l-12-8-31-18-98-58-19-11-4-2-10-6-15-9-12-7-52-30-16-10-5-2-8-5-34-21-32-19-14-8-52-31-52-30-9-5zm21 26 6 4 3 2 8 5 37 21 55 33 13 7 17 10 75 45 57 33 19 11q0 2 3 2l38 23 45 26 63 38c2 1 2 26 2 268v267l-6 3-23 14-22 12-21 13-22 13-10 6-15 9-21 12-35 21-101 60-34 20-1 1-6 4-6 3-8 4-15 9q-9 6-11 5l-1 1-4 4-30 18-9 5-8 4h-1l-1 2-19 11-17 11-9-6-59-35-39-23-35-20-34-21-28-17-70-41-32-19-138-81-4-2v-266l1-268 16-11 92-53 26-16 25-15 20-12 67-39 15-8q6-5 17-10l34-21 58-34 71-43q5-5 12 2"/>
  <path d="m1020 534-14 9-45 26-63 37-65 39-100 60-30 17c-66 39-82 49-87 53l-4 4-1 247v247l2 2 20 13 61 36 15 9 11 6 17 11a641 641 0 0 1 63 37l7 4 14 8 17 10 29 17 18 11 8 5 16 10 9 5 48 29 5 2 55 32q5 0 23-11l18-12 37-22 93-55 9-5 45-27 98-58a1271 1271 0 0 0 93-57l-1-495a873 873 0 0 0-90-55l-20-12-16-10-9-5-14-8-27-16-28-17-36-21-26-15-39-24-44-26-66-38zm11 30 9 5 7 5 5 3 18 10c1 1 13 9 27 16l27 17 7 4 5 3 8 4 26 16 11 7c1 0 14 7 22 13l17 9 36 22 87 51 27 16 38 22 7 5v234l-1 235-6 3-17 11-5 2-5 4-4 2-67 39-26 16-15 9-24 14-109 64a931 931 0 0 0-76 46l-22 12-11 6q-1 2-10-4l-15-9-72-44-19-11-96-57a913 913 0 0 1-75-44l-73-43-24-14-5-3V791l5-3 20-11 66-39 141-83 59-36 26-15 25-15 23-13 23-14z"/>
  <path d="m1006 684-24 3c-11 1-44 9-54 13a311 311 0 0 0-167 148 300 300 0 0 0-18 238c10 29 30 67 49 90a350 350 0 0 0 65 61 184 184 0 0 1-6 38l-12 53q-1 10 15 12c8 1 11 1 22-3a433 433 0 0 0 94-52q3-2 13 1c21 3 67 3 88-1a356 356 0 0 0 105-38 311 311 0 0 0 96-90 297 297 0 0 0 37-261 301 301 0 0 0-303-212m62 29q31 5 59 17a289 289 0 0 1 120 97c33 46 53 114 51 171a266 266 0 0 1-50 149 272 272 0 0 1-263 113c-17-3-20-3-40 10a557 557 0 0 1-76 43l7-34c8-44 9-47 7-52-1-4-2-5-12-12a275 275 0 0 1-119-227 290 290 0 0 1 174-260 286 286 0 0 1 142-15"/>
  <path d="M1018 755c-4 3-5 6-5 26 0 17 0 19 2 22q8 9 17 2c3-3 3-5 3-21v-24l-3-4q-4-3-8-3zm-84 18q-4 3-4 9c0 4 13 28 19 33q8 6 15 0 4-2 3-7l-1-8c-4-7-17-26-19-27-3-3-10-2-13 0m167 1c-5 5-18 25-19 30q-2 8 5 13 6 3 12-1l11-17c11-18 11-21 6-25q-7-6-15 0m-121 71q-13 1-24 8-10 5-16 13l-4 5h-15c-12 1-16 1-22 3q-24 9-36 34c-5 11-5 11 8 10 15 0 16 0 28 12l12 11h8c6-1 7-1 12 1q14 8 11 24c-4 16-24 22-35 10-7-6-8-10-5-23 0-2-1-3-8-11l-11-9-17-1c-19 0-20 0-30 9q-14 13-18 34v3l12-1h14l12 9q7 8 10 8c12-2 17-1 23 4 10 9 9 25-1 33-4 3-5 3-11 4q-8 1-12-2l-7-7c-3-4-3-5-3-11v-9q3-1-7-9l-8-7h-11l-12 1v13q0 20 7 35 11 21 35 29c7 2 9 2 24 2h18q3-1 7-8 20-34 30-43 8-8 21-12l9-3v-73l-4-3q-10-7-10-18 0-12 9-19c4-2 5-3 12-3 6 0 7 1 11 3 14 10 14 29 0 37l-4 2v71l3-1 32-11-1-139c-2-2-14-5-22-6zm69 0q-13 2-16 5c-2 2-2 4-2 67v65l3-1 23-7c2-1 2-3 2-27 0-25 0-26 2-28 2-1 4-2 18-2l16 1 1-3q2-4 8-9l4-2v-39l-5-5c-5-5-18-12-26-13-7-2-20-3-28-2"/>
  <path d="m1123 872-1 16v15l3 2q11 6 11 20 1 9-6 14-7 7-16 6-11-1-17-10l-3-4h-11l-11 1v18c0 18 0 19 2 18q13-4 13 4 0 5-7 8l-20 8-108 37q-10 6-19 21-14 23-14 28c0 8 8 24 17 33a57 57 0 0 0 40 15c12 0 13 0 32-7l11-3 3 4c2 4 4 5 20 19 22 18 27 23 42 50 9 16 9 16 25 16 15 0 16-2 10-18-9-19-17-42-15-43l6 1 15 2q37 1 60-31c5-7 10-20 10-26v-3h-84l-8 3-9 4q-2 10-8 16c-11 11-31 5-35-11q-3-10 6-19 13-12 27-3c6 4 7 4 17-1l6-3h95l6-3c6-3 16-13 19-20 7-14 7-35-1-49-2-5-2-6-2-15q3-38-26-51c-7-3-7-3-8-7q-4-20-16-32c-7-9-21-16-32-20-6-1-18-2-19 0m56 67q8 3 11 11v17c-1 3-7 9-10 10l-3 3v28l3 1c11 5 15 23 7 32q-7 6-15 8-13 1-21-11l-2-4h-36c-43 1-35-1-72 16l-27 13c-3 1-4 1-6 8q-3 11-14 15-7 2-13-1c-9-3-16-14-14-23q3-10 11-16c7-3 19-2 23 3l4 2 18-7 29-14c20-8 23-9 32-9 8 0 9 0 11-2l19-31q7-11 12-8 6 2 4 9l-7 12-12 20h37l3-4 7-7 5-3v-28l-5-4q-14-11-8-26c5-10 19-15 28-10"/>
  <path d="M1164 953q-6 6 0 11c5 6 14 3 14-5 0-9-8-12-14-6m0 69q-6 6-1 11 2 3 6 3 9 0 9-8c0-8-8-12-14-6m-180 36c-3 1-5 7-4 10q2 8 12 6 4-3 5-8-1-5-6-8zm-14-155c-7 6-4 15 4 15q8 0 9-8c0-8-8-12-13-7m143 13q-6 1-6 8 0 6 5 8 12 2 11-9-2-9-10-7m-195 37q-5 4-6 10c2 6 10 9 14 6q7-6 1-13-4-4-9-3m-47 54q-8 5-3 13 3 3 7 3 8 0 9-9c0-7-7-11-13-7m197 76c-5 2-6 11-1 15q4 3 10-1c6-4 4-13-2-15l-3-1z"/>
</svg>
