<svg xmlns="http://www.w3.org/2000/svg" width="1365.3" height="1365.3" viewBox="0 0 1024 1024">
  <rect width="100%" height="100%" fill="#004225" />
  <path fill="#fff" d="M523 213q-10 2-14 10l-3 15q-1 19-7 20-4 1-14-16-7-16-19-15c-4 0-18 6-23 11-9 8-10 14-3 29 8 16 8 21 0 29l-10 14-6 6 1-12c0-9 0-10-3-15q-6-11-29-14h-18q-18 1-26 10c-7 7-7 10-5 25 4 38 2 68-7 105-3 13-4 15-9 21q-29 40-29 93c0 33 7 62 22 95 29 60 82 110 151 145 41 20 75 31 128 40 17 3 41 3 53 0q59-15 69-110a320 320 0 0 0-35-203c3-17-2-42-13-62a130 130 0 0 0-38-38c1-2 27-9 42-11l13-3c11-4 18-21 16-37q-1-15-10-23c-8-8-10-9-32-7q-16 0-19 2-2 0-6-8c-5-9-14-21-21-27-5-4-5-4-5-9q0-5 4-14c5-12 5-17 2-24-3-3-4-5-11-8-15-7-21-7-28-3-3 3-5 5-10 15l-8 14q-6 8-5-14c-1-13-1-14-3-18q-5-8-19-8zm18 17 1 7c-1 7 0 20 3 25q4 9 14 8 14 1 25-23c6-12 6-11 16-7 7 3 7 4 3 12q-7 19-3 31l11 14q11 10 14 17l3 6-9 2c-11 3-29 9-43 15q-30 13-44-2c-6-6-9-6-18-2q-19 10-25 32c-1 8-1 21 1 27q2 3-2 7l-13 18c-11 15-13 17-10 22q4 3 9 2l10-10 14-19c10-13 10-13 8-21-5-16-1-34 10-41l4-2 6 4q13 6 26 6c11 0 18-2 35-9a255 255 0 0 1 88-19c7 0 8 0 11 3 5 5 7 17 5 26l-4 7q-2 2-12 3-51 7-80 36a93 93 0 0 0-21 31q-15 41 24 55l27 6c26 4 33 5 41 9 7 3 8 3 12 10 23 38 34 93 31 153-4 77-22 114-59 125-9 2-28 3-41 1q-140-21-228-112c-24-25-47-63-56-92-8-23-12-51-11-70q5-64 52-101c9-6 24-14 36-18l7-3 1 3c4 18 7 27 13 40q7 13 12 12 7-1 8-7l-7-15-9-22c-2-10-2-12-2-30 0-17 0-21 2-27q7-26 24-45l8-11q6-14-4-36c-4-8-4-9-3-11l15-7 6 9q12 23 27 22 19-2 22-34 0-10 2-11c2-2 15-1 17 0m-143 61q10 4 12 7l-1 12-2 42v32l-7 2a207 207 0 0 0-46 22 329 329 0 0 0 5-110q2-4 12-7zm228 119q45 27 46 74 1 8-2 6l-33-8c-31-4-39-7-46-13q-8-5-5-18t13-27c5-7 17-18 20-18z"/>
  <path fill="#fff" d="M497 454q-12 6-14 19v6l-9 3-64 28c-9-7-10-7-18-8-7 0-8 0-13 3q-11 6-11 20-1 16 14 22 5 3 12 2l7-1 8 12 11 15 2 3-10 14-11 13h-9c-8 0-9 1-13 3q-10 7-11 19 0 12 8 19 14 12 33-1c1-1 9 3 37 17l36 18 1 7q2 11 10 18c12 8 28 4 35-10q3-4 2-12l-1-8 17-13 46-36c17-12 31-23 32-25l3-2 3 2q9 6 19 3c17-5 23-25 11-39-6-7-19-10-28-5l-4 2-13-10-50-38-36-28 1-8q1-12-7-20-12-9-26-4m17 12q9 9 1 18c-8 8-22 2-21-10 1-9 13-14 20-8m-27 24-4 7-34 44-25-10-9-3v-8l22-9 34-16c14-6 16-7 16-5m64 26 48 37 20 16q3 1 1 6v14l-26 22-42 33-22 17-8 6-5-3q-9-3-18-1c-2 0-1 2-40-52l-23-33 9-12 8-12 5 2 30 9q4-3 1-8l-15-6-13-6 37-47 7 1q6 1 11-2l6-3zm-152 0c8 6 6 19-4 21q-15 2-16-12-1-7 5-10 8-5 15 1m27 28 15 6c1 1-11 18-12 18l-11-14c-7-11-9-13-8-15l1-1zm223 27q6 3 6 10 0 9-8 12c-13 4-22-12-12-21q6-5 14-1m-213 26 6 9-15 5c-21 7-21 7-8-12l10-11zm33 45 19 28-37-18-36-18v-8l16-5 17-6zm-72-25q7 5 7 12c0 6-7 12-13 12q-7-1-11-6-3-8 1-14 6-8 16-4m116 58q5 4 6 11 0 6-5 9c-3 2-11 2-15 0q-4-4-5-10 1-7 6-11c3-1 10-1 13 1"/>
  <path fill="#fff" d="M521 535q-6 4-13 18c-8 20-12 27-18 32q-5 6-14 7-10 1-9 6-1 6 10 5 14-1 23-12 7-8 16-29 8-19 12-18c3 1 6 4 12 20 10 23 15 30 26 35 7 4 18 5 21 3q2-4 0-8l-8-2q-10-1-16-8c-4-5-8-11-15-28l-7-15q-9-12-20-6m88 115q-11 6-14 16-3 8 1 11c4 2 10 0 10-4 0-3 4-10 7-11 7-4 17-1 20 6q4 8-8 17-12 10-11 20 0 9 6 8 6 0 6-8c1-4 2-5 9-12 10-9 11-13 11-21q0-16-14-22-12-4-24 0m9 72q-4 3-5 8l2 4q2 3 6 3c7 0 10-7 6-12q-5-4-9-3"/>
</svg>
